<?xml version="1.0" standalone="no"?>
<!DOCTYPE svg PUBLIC "-//W3C//DTD SVG 20010904//EN"
 "http://www.w3.org/TR/2001/REC-SVG-20010904/DTD/svg10.dtd">
<svg version="1.0" xmlns="http://www.w3.org/2000/svg"
 width="421.000000pt" height="417.000000pt" viewBox="0 0 421.000000 417.000000"
 preserveAspectRatio="xMidYMid meet">

<g transform="translate(0.000000,417.000000) scale(0.100000,-0.100000)"
fill="#2563eb" stroke="none">
<path d="M1805 3843 c-465 -57 -809 -222 -1098 -523 -234 -243 -385 -547 -447
-895 -57 -318 -42 -676 40 -970 192 -681 733 -1138 1465 -1235 131 -17 427
-15 569 5 489 67 892 298 1148 656 190 266 300 634 286 958 -6 132 -36 188
-128 237 -32 17 -67 19 -424 22 -441 3 -457 1 -519 -67 -46 -51 -61 -99 -54
-179 6 -84 41 -136 116 -174 l55 -28 237 0 237 0 -13 -68 c-77 -401 -364 -721
-765 -851 -248 -81 -565 -93 -836 -30 -436 100 -780 433 -904 874 -100 358
-76 763 65 1087 114 261 338 493 589 608 382 175 867 172 1236 -9 138 -67 219
-129 365 -276 146 -147 174 -165 256 -165 170 0 280 177 206 332 -29 63 -133
183 -232 270 -255 223 -578 365 -944 413 -96 13 -425 18 -506 8z"/>
</g>
</svg>
